<?xml version="1.0" standalone="no"?>
<!DOCTYPE svg PUBLIC "-//W3C//DTD SVG 20010904//EN"
 "http://www.w3.org/TR/2001/REC-SVG-20010904/DTD/svg10.dtd">
<svg version="1.0" xmlns="http://www.w3.org/2000/svg"
 width="176.000000pt" height="176.000000pt" viewBox="0 0 176.000000 176.000000"
 preserveAspectRatio="xMidYMid meet">
<metadata>
Created by potrace 1.14, written by Peter Selinger 2001-2017
</metadata>
<g transform="translate(0.000000,176.000000) scale(0.100000,-0.100000)"
fill="#000000" stroke="none">
<path d="M85 1735 c-14 -13 -25 -37 -26 -52 -5 -158 -2 -1595 3 -1618 4 -16
17 -38 29 -47 20 -17 72 -18 785 -18 549 0 770 3 788 11 14 7 29 24 34 38 10
31 9 1637 -1 1667 -4 12 -19 26 -33 32 -18 9 -234 12 -790 12 l-765 0 -24 -25z"/>
</g>
</svg>
